<?xml version="1.0" standalone="no"?>
<!DOCTYPE svg PUBLIC "-//W3C//DTD SVG 20010904//EN"
 "http://www.w3.org/TR/2001/REC-SVG-20010904/DTD/svg10.dtd">
<svg version="1.0" xmlns="http://www.w3.org/2000/svg"
 width="1024.000000pt" height="1024.000000pt" viewBox="0 0 1024.000000 1024.000000"
 preserveAspectRatio="xMidYMid meet">
<metadata>
Created by potrace 1.14, written by Peter Selinger 2001-2017
</metadata>
<g transform="translate(0.000000,1024.000000) scale(0.100000,-0.100000)"
fill="#000000" stroke="none">
<path d="M22 5120 l3 -5100 5088 0 c2798 0 5092 0 5097 0 7 0 10 1707 10 5100
l0 5100 -5100 0 -5100 0 2 -5100z m5748 4260 c0 -5 -7 -7 -15 -4 -8 4 -15 8
-15 10 0 2 7 4 15 4 8 0 15 -4 15 -10z m-680 -120 c8 -5 11 -10 5 -10 -5 0
-17 5 -25 10 -8 5 -10 10 -5 10 6 0 17 -5 25 -10z m1146 -117 c-6 -6 -66 22
-70 33 -2 6 13 2 34 -10 21 -11 38 -22 36 -23z m-796 -3 c12 -23 12 -24 -3
-11 -10 7 -17 20 -17 29 0 18 3 16 20 -18z m-175 -50 c13 -6 15 -9 5 -9 -8 0
-22 4 -30 9 -18 12 -2 12 25 0z m1020 -10 c3 -5 15 -10 26 -10 10 0 19 -4 19
-8 0 -5 12 -14 26 -21 15 -6 24 -14 21 -17 -8 -8 -117 46 -117 57 0 12 17 11
25 -1z m-955 -40 c8 -5 12 -11 10 -14 -3 -2 -14 2 -24 10 -22 15 -10 19 14 4z
m1023 -43 c20 -17 24 -24 11 -18 -11 5 -26 17 -33 25 -7 8 -18 13 -25 10 -7
-3 -20 4 -30 15 -18 20 -18 20 14 8 17 -7 46 -25 63 -40z m-57 -22 c10 -8 15
-14 9 -14 -5 0 -19 6 -29 14 -11 8 -15 15 -10 15 6 0 19 -7 30 -15z m-1019
-71 c-3 -3 -12 -4 -19 -1 -8 3 -5 6 6 6 11 1 17 -2 13 -5z m1128 -25 c11 -17
0 -20 -21 -4 -17 13 -17 14 -2 15 9 0 20 -5 23 -11z m90 -9 c3 -6 -1 -7 -9 -4
-18 7 -21 14 -7 14 6 0 13 -4 16 -10z m-1240 -20 c-16 -4 -39 -8 -50 -8 l-20
-1 20 9 c11 5 34 8 50 8 l30 0 -30 -8z m149 2 c2 -4 -17 -8 -42 -9 -37 -1 -41
1 -22 7 34 11 58 12 64 2z m-56 -69 c-10 -2 -28 -2 -40 0 -13 2 -5 4 17 4 22
1 32 -1 23 -4z m1212 -95 c0 -7 -5 -6 -13 1 -8 6 -18 7 -22 3 -5 -4 -5 -2 -1
5 8 14 36 6 36 -9z m-1325 -8 c-27 -12 -35 -12 -35 0 0 6 12 10 28 9 24 0 25
-1 7 -9z m1140 -20 c10 -11 16 -20 13 -20 -3 0 -13 9 -23 20 -10 11 -16 20
-13 20 3 0 13 -9 23 -20z m230 -18 c-6 -7 -35 18 -35 31 0 5 9 2 20 -8 11 -10
18 -20 15 -23z m95 -45 c0 6 -7 16 -15 23 -8 7 -15 17 -15 23 0 6 11 -5 24
-24 13 -19 31 -42 40 -51 9 -10 12 -18 7 -18 -6 0 -13 5 -16 10 -5 8 -11 7
-21 -1 -8 -6 -14 -10 -15 -8 0 2 -2 13 -4 23 -2 10 -7 22 -12 25 -4 3 -19 20
-33 36 -17 21 -12 18 18 -10 23 -21 42 -34 42 -28z m-177 6 c-4 -11 -3 -14 5
-9 7 4 12 1 12 -9 0 -9 4 -14 8 -11 5 3 9 -1 9 -9 0 -12 -3 -12 -16 -2 -30 23
-40 41 -28 49 17 11 17 10 10 -9z m-1398 -23 c-3 -5 -12 -10 -18 -10 -7 0 -6
4 3 10 19 12 23 12 15 0z m1360 -21 c11 -17 -1 -21 -15 -4 -8 9 -8 15 -2 15 6
0 14 -5 17 -11z m249 -121 c6 2 8 0 3 -4 -4 -4 0 -18 8 -30 13 -21 13 -23 0
-18 -8 4 -15 9 -15 13 0 4 -24 33 -54 64 -35 36 -60 55 -69 51 -8 -3 -18 0
-23 7 -5 9 -2 10 9 6 20 -8 21 -3 6 26 -6 12 19 -9 56 -48 38 -38 73 -68 79
-67z m-1154 115 c0 -5 -4 -15 -10 -23 -11 -18 -25 -7 -17 15 6 15 27 21 27 8z
m-490 -7 c0 -2 -14 -9 -31 -15 -27 -9 -30 -9 -19 4 11 13 50 22 50 11z m1393
-35 c23 -22 39 -42 36 -46 -4 -3 -28 15 -54 40 -26 25 -42 45 -36 45 7 0 31
-18 54 -39z m37 8 c0 -6 -4 -7 -10 -4 -5 3 -10 11 -10 16 0 6 5 7 10 4 6 -3
10 -11 10 -16z m220 11 c0 -5 -7 -7 -15 -4 -8 4 -15 8 -15 10 0 2 7 4 15 4 8
0 15 -4 15 -10z m40 -30 c0 -5 -4 -10 -10 -10 -5 0 -10 5 -10 10 0 6 5 10 10
10 6 0 10 -4 10 -10z m-225 -19 c3 -5 2 -12 -3 -15 -5 -3 -9 1 -9 9 0 17 3 19
12 6z m-1050 -31 c3 -5 -1 -10 -10 -10 -9 0 -13 5 -10 10 3 6 8 10 10 10 2 0
7 -4 10 -10z m1005 -5 c7 -9 19 -14 26 -11 7 2 19 -3 28 -13 21 -24 20 -37 -1
-20 -16 11 -16 11 -5 -1 7 -8 20 -15 30 -15 10 0 16 -7 16 -18 -2 -13 1 -15
11 -7 9 8 14 6 19 -7 4 -10 2 -19 -4 -21 -13 -5 6 -32 22 -32 6 0 6 6 -1 14
-7 9 -8 17 -3 20 13 8 23 -20 15 -39 -3 -9 -2 -15 3 -14 15 2 54 -13 54 -22 0
-4 -4 -11 -10 -14 -6 -4 -3 -17 7 -33 24 -37 42 -54 50 -49 5 3 14 -1 20 -9 8
-8 9 -15 3 -19 -6 -3 -10 -1 -10 6 0 7 -3 10 -6 6 -7 -6 10 -39 19 -38 20 3
27 0 27 -10 0 -6 -7 -8 -16 -5 -14 5 -15 4 -4 -9 9 -11 16 -13 24 -5 5 5 15
10 21 10 6 0 5 -3 -2 -8 -8 -5 -5 -14 9 -32 l21 -25 -8 24 c-6 21 -3 19 23
-10 20 -23 27 -38 21 -45 -7 -8 -2 -14 16 -18 14 -4 25 -11 25 -16 0 -14 -18
-12 -23 3 -2 6 -8 8 -13 4 -4 -4 -3 -17 4 -27 7 -11 12 -25 11 -32 0 -7 -4 -3
-9 10 -5 12 -16 22 -25 22 -9 0 -15 6 -14 13 3 24 -1 38 -10 32 -5 -3 -27 17
-48 44 -21 28 -44 53 -52 56 -11 4 -11 3 -2 -9 8 -9 8 -16 2 -20 -16 -10 -30
25 -18 45 9 14 3 26 -28 66 -22 26 -43 50 -47 51 -5 2 -8 9 -8 17 0 15 -79
101 -91 98 -5 -2 -5 5 -2 14 4 10 2 14 -4 10 -10 -7 -59 42 -55 56 1 4 -2 7
-8 7 -5 0 -14 9 -20 20 -13 24 2 27 20 5z m85 4 c11 -17 0 -20 -21 -4 -17 13
-17 14 -2 15 9 0 20 -5 23 -11z m-1580 -19 c-3 -5 -10 -10 -16 -10 -5 0 -9 5
-9 10 0 6 7 10 16 10 8 0 12 -4 9 -10z m562 -5 c19 -20 10 -43 -19 -47 -18 -2
-23 -9 -21 -29 1 -19 -5 -28 -25 -37 -26 -11 -26 -11 -2 -6 14 4 39 13 57 21
26 12 38 12 74 2 39 -12 41 -14 18 -20 -13 -4 -17 -7 -8 -8 18 -1 33 -27 24
-41 -3 -4 4 -6 14 -3 15 4 19 0 17 -14 -3 -20 21 -63 35 -63 5 0 3 11 -3 25
-9 19 -9 28 0 37 8 8 13 7 18 -5 3 -9 10 -17 15 -17 5 0 24 -16 42 -36 26 -29
42 -37 80 -41 35 -4 47 -9 43 -19 -3 -9 8 -21 32 -32 24 -11 44 -31 58 -57 11
-22 27 -41 36 -43 8 -2 24 -20 34 -40 11 -20 29 -45 42 -55 12 -10 22 -25 22
-33 0 -8 5 -14 10 -14 6 0 10 -6 10 -14 0 -7 7 -19 15 -26 8 -7 15 -19 15 -27
0 -21 27 -47 32 -31 3 7 10 -2 16 -20 6 -19 7 -34 1 -37 -11 -7 17 -65 31 -65
5 0 12 -11 16 -25 3 -14 12 -25 18 -25 7 0 19 -12 27 -27 8 -16 18 -31 24 -35
5 -4 7 -8 2 -8 -4 0 0 -15 10 -32 9 -18 18 -35 18 -38 4 -13 17 -47 26 -62 5
-11 5 -19 -2 -24 -7 -4 -4 -13 8 -25 32 -33 39 -44 35 -62 -2 -10 6 -34 17
-53 12 -19 21 -42 21 -50 0 -8 5 -14 10 -14 6 0 10 -12 10 -28 0 -15 7 -37 15
-49 8 -12 13 -27 10 -35 -3 -7 0 -36 6 -63 23 -106 38 -220 30 -228 -4 -4 -14
-1 -21 8 -7 8 -17 15 -22 15 -5 0 -35 15 -66 33 l-57 32 -35 -18 -35 -19 45 6
c34 4 39 3 22 -4 -19 -8 -21 -12 -10 -24 7 -7 16 -10 19 -5 3 5 19 5 37 -2 19
-6 29 -15 25 -22 -4 -6 0 -8 10 -4 15 6 42 -15 31 -25 -3 -3 7 -15 22 -27 16
-12 29 -28 30 -35 4 -30 16 -56 25 -56 11 0 12 -37 1 -42 -5 -1 -12 -15 -16
-30 -7 -30 5 -36 33 -19 12 8 12 12 2 24 -8 11 -9 17 -1 22 12 8 10 125 -2
125 -5 0 -8 5 -8 11 0 5 4 8 9 4 6 -3 9 4 8 15 -1 11 -8 20 -15 20 -12 0 -12
3 -2 15 20 24 43 -9 52 -79 5 -34 15 -66 23 -72 8 -6 17 -31 20 -55 3 -24 7
-55 9 -69 2 -14 7 -52 11 -85 3 -33 11 -71 17 -85 21 -49 27 -65 33 -93 3 -16
10 -25 16 -21 7 4 10 -4 9 -22 -1 -16 -1 -31 0 -34 27 -57 -1 -690 -36 -817
-8 -30 3 -29 28 2 11 14 24 25 28 25 14 0 37 -52 33 -72 -3 -10 0 -18 6 -18 6
0 11 -7 11 -15 0 -8 -4 -15 -10 -15 -5 0 -10 -6 -10 -14 0 -22 -41 -32 -52
-12 -5 9 -13 14 -19 11 -5 -4 -9 3 -9 14 0 44 -17 18 -34 -51 -38 -151 -107
-391 -141 -485 -57 -157 -182 -350 -316 -485 -25 -27 -42 -48 -38 -48 5 0 9
-19 9 -42 0 -24 7 -92 15 -153 20 -148 8 -258 -35 -321 -17 -23 -30 -47 -30
-52 0 -5 -7 -15 -15 -22 -8 -7 -15 -18 -15 -24 0 -6 23 14 50 44 27 30 50 49
50 42 0 -7 -7 -15 -15 -18 -10 -4 -13 -13 -10 -25 4 -10 -7 -40 -25 -73 -27
-47 -29 -57 -18 -75 10 -17 9 -29 -10 -73 -12 -29 -34 -103 -49 -165 -15 -61
-31 -109 -35 -107 -11 7 0 66 23 129 11 28 19 62 19 77 0 15 4 29 9 32 10 7
36 95 29 101 -3 3 -24 -43 -48 -102 -23 -60 -46 -112 -51 -118 -5 -5 -9 -22
-9 -38 0 -15 -4 -26 -9 -23 -5 3 -11 -9 -14 -27 -3 -18 -26 -77 -52 -132 -48
-101 -75 -185 -75 -232 0 -36 10 -23 21 29 6 23 16 50 23 58 7 8 18 35 26 60
19 64 61 160 71 160 4 0 8 -30 8 -67 1 -96 5 -152 11 -148 3 2 19 -36 36 -85
29 -84 28 -113 -2 -46 l-13 31 -1 -36 c0 -35 -20 -66 -33 -52 -4 3 -7 1 -7 -6
0 -7 -4 -9 -10 -6 -5 3 -21 -2 -35 -11 -22 -14 -25 -15 -31 -1 -3 9 -12 13
-20 10 -9 -3 -27 6 -43 21 l-28 27 -7 -27 c-6 -21 -9 -25 -16 -14 -7 11 -11 8
-19 -13 -6 -15 -17 -27 -24 -27 -19 0 -147 -69 -167 -90 -10 -10 -50 -30 -61
-30 -7 0 -28 -12 -48 -28 -28 -21 -48 -27 -91 -29 -30 0 -60 3 -67 9 -7 5 -20
7 -31 4 -10 -3 -27 1 -38 9 -10 8 -27 15 -36 15 -10 0 -18 4 -18 9 0 16 21 24
33 12 6 -6 18 -11 26 -11 11 0 12 3 3 12 -8 8 -8 15 -2 23 8 9 4 11 -12 9 -26
-5 -74 33 -80 62 -4 21 -58 34 -58 13 0 -8 -4 -8 -15 1 -9 7 -15 20 -14 29 1
9 1 24 0 35 -1 15 -4 16 -16 6 -8 -7 -15 -8 -15 -3 0 5 -9 19 -20 31 -17 18
-19 26 -10 43 7 11 8 24 4 27 -4 4 -9 1 -11 -5 -6 -18 -23 -16 -45 4 -11 9
-18 11 -18 5 0 -7 -12 -12 -26 -12 -14 0 -23 4 -19 10 3 6 1 10 -5 10 -6 0 -8
5 -5 10 7 11 -5 13 -42 10 -17 -1 -23 4 -23 18 0 11 -13 31 -28 44 -15 13 -31
31 -35 41 -4 10 -20 20 -37 23 -33 7 -52 25 -48 45 2 8 -7 13 -22 13 -22 0
-39 11 -40 26 0 3 24 4 52 3 43 -2 48 -1 30 7 -31 13 -52 35 -52 54 0 9 -5 16
-11 16 -7 0 0 9 14 21 15 11 32 19 39 18 24 -3 38 1 38 11 0 6 -10 10 -23 10
-31 0 -59 22 -52 40 3 9 19 21 36 29 19 8 28 18 25 27 -3 7 3 18 12 23 16 10
15 10 -2 11 -18 0 -18 2 4 25 13 14 32 25 42 25 10 0 18 5 18 10 0 6 8 10 18
11 14 0 14 2 -3 9 -19 8 -19 9 -1 9 11 1 30 11 43 23 16 15 23 17 23 7 0 -8 7
0 16 17 15 30 50 54 79 54 8 0 19 9 25 20 6 11 20 20 30 20 11 0 20 6 20 14 0
8 16 20 35 27 19 7 35 17 35 21 0 4 11 8 25 8 14 0 25 5 25 10 0 6 6 10 14 10
7 0 25 9 39 20 14 11 32 20 41 20 9 0 16 4 16 9 0 5 15 14 33 21 80 30 114 46
147 68 37 25 40 26 -57 -4 -26 -8 -45 -9 -48 -3 -4 5 -13 6 -22 0 -17 -9 -53
-3 -53 9 0 5 -13 13 -30 18 -16 6 -35 16 -42 22 -7 6 -22 17 -33 25 -17 13
-18 16 -5 26 13 9 13 10 0 7 -17 -5 -50 21 -50 39 0 9 -8 11 -25 7 -19 -5 -25
-2 -25 10 0 9 6 16 13 16 6 0 -4 8 -23 18 -19 9 -35 24 -35 32 0 8 -10 16 -23
18 -17 3 -25 -4 -35 -26 -10 -24 -16 -28 -33 -22 -11 5 -27 4 -35 -1 -11 -7
-10 -9 4 -9 10 0 15 -5 12 -10 -12 -19 -35 10 -41 52 -4 24 -14 43 -27 49 -16
9 -17 13 -6 20 11 7 8 14 -15 34 -23 19 -26 28 -17 39 14 17 4 46 -18 47 -10
0 -11 2 -3 6 6 2 12 19 12 36 0 29 -1 30 -15 11 -12 -16 -14 -17 -15 -2 0 9 7
23 15 32 10 10 12 17 4 21 -8 5 -8 10 0 18 6 6 11 22 11 34 0 29 37 103 51
103 6 0 7 4 4 10 -5 8 5 12 69 25 12 2 20 -3 23 -16 7 -25 29 -24 36 2 5 18
11 21 38 17 25 -4 33 -1 37 14 6 24 18 23 25 -2 4 -16 12 -19 53 -16 52 3 68
22 40 45 -11 10 -13 19 -5 38 6 16 6 30 1 35 -5 5 -44 13 -86 17 -43 4 -81 13
-85 19 -5 9 -21 11 -49 6 -28 -4 -47 -2 -57 6 -12 10 -15 10 -15 -1 0 -8 -6
-5 -14 7 -13 17 -12 20 2 27 13 5 11 6 -5 3 -12 -2 -30 2 -40 10 -17 13 -17
13 0 14 21 0 23 20 2 20 -29 0 -16 30 16 37 17 3 26 9 20 12 -6 4 15 8 47 8
54 2 87 -10 77 -27 -3 -5 -1 -11 5 -15 5 -3 10 2 10 12 0 10 5 25 10 33 8 12
12 12 18 2 7 -10 11 -10 21 1 7 9 21 13 33 9 14 -3 19 -1 14 6 -4 7 -20 12
-36 12 -23 0 -27 3 -23 20 4 14 -1 22 -18 29 -18 7 -19 10 -6 10 9 1 17 9 18
19 0 9 6 3 12 -15 7 -17 25 -42 42 -55 28 -22 38 -23 180 -23 175 0 302 -11
365 -32 24 -8 65 -34 90 -57 26 -24 57 -47 71 -51 13 -4 35 -20 49 -36 32 -37
64 -42 68 -11 2 12 -1 22 -7 22 -6 0 -11 9 -11 21 0 11 -34 72 -76 135 l-76
114 -50 -40 c-57 -45 -81 -48 -167 -26 -36 10 -61 12 -78 5 -14 -5 -29 -7 -34
-4 -5 4 -6 -1 -3 -9 9 -24 -2 -19 -32 12 -25 26 -26 26 -19 4 l7 -23 -34 17
c-27 14 -31 14 -20 2 10 -13 10 -17 -3 -22 -18 -7 -75 19 -75 34 0 6 -7 10
-15 10 -18 0 -19 -11 -2 -30 10 -12 9 -12 -6 0 -10 7 -16 19 -13 27 3 7 1 13
-4 13 -6 0 -10 8 -11 18 0 13 -3 12 -11 -5 -10 -20 -12 -21 -22 -7 -7 8 -29
16 -51 17 -22 1 -42 5 -45 9 -3 3 -25 7 -50 9 -25 1 -49 6 -55 9 -5 4 -35 15
-65 24 -128 39 -160 50 -160 56 0 20 31 78 45 83 8 4 15 15 15 24 0 10 7 28
15 41 9 12 15 29 13 38 -4 21 62 58 76 44 6 -6 17 -10 26 -9 10 0 11 2 2 6
-18 7 -4 23 20 23 14 0 18 5 15 15 -4 8 -2 17 2 20 15 9 51 94 51 120 0 14 -8
33 -18 43 -9 9 -24 37 -31 60 -8 24 -18 45 -22 48 -5 3 -16 21 -25 40 -10 20
-29 41 -43 47 -14 6 -28 12 -30 14 -2 1 -9 34 -16 73 -10 61 -10 70 2 66 11
-5 13 0 9 22 -3 15 -5 52 -5 82 1 63 0 124 -1 227 -1 40 2 78 6 85 4 7 8 24 8
39 1 15 4 31 8 35 4 4 3 13 -3 20 -7 9 -6 18 2 32 10 15 10 34 2 79 -9 48 -8
64 6 96 8 20 19 37 23 37 11 0 10 64 -2 94 -8 23 -7 26 11 26 18 0 19 2 9 15
-9 10 -9 15 -1 15 6 0 11 11 11 25 0 18 -5 25 -19 25 -10 0 -21 7 -25 15 -3 8
-12 15 -20 15 -12 0 -14 5 -6 25 8 21 7 25 -10 25 -15 0 -20 -7 -20 -26 0 -15
-4 -23 -10 -19 -6 4 -17 2 -25 -5 -10 -8 -15 -8 -20 0 -4 6 -13 9 -21 6 -7 -3
-18 4 -24 14 -9 16 -7 20 7 21 10 0 5 5 -12 10 -16 5 -36 7 -42 4 -7 -2 -13 1
-13 8 0 7 -7 4 -15 -6 -13 -18 -14 -18 -24 1 -7 13 -17 18 -30 15 -13 -3 -23
2 -30 15 -17 32 -42 54 -56 48 -7 -2 -15 5 -18 16 -3 12 -10 17 -17 13 -6 -4
-27 9 -46 29 -19 20 -40 36 -47 36 -7 0 -23 12 -36 25 -13 14 -18 25 -11 25 7
0 2 10 -11 23 -33 31 -64 97 -60 130 1 16 -3 27 -10 27 -8 0 -9 4 -1 13 6 7 9
26 6 41 -4 24 -2 27 16 21 16 -5 19 -3 13 11 -5 13 -2 15 18 9 22 -7 23 -6 9
10 -13 15 -12 19 8 35 15 12 18 20 10 23 -8 2 -1 14 20 31 17 15 30 32 26 37
-3 5 2 12 10 15 8 3 18 14 21 25 4 10 10 18 14 16 15 -5 81 38 76 50 -3 9 6
13 25 13 20 0 30 5 30 15 0 8 -4 15 -10 15 -5 0 -10 5 -10 10 0 6 6 10 13 10
7 0 19 9 27 20 8 11 20 20 27 20 17 0 16 15 -2 30 -8 7 -15 9 -15 4 0 -4 -7 1
-15 12 -13 17 -14 17 -15 2 0 -10 -9 -22 -19 -28 -31 -16 -35 -12 -16 16 16
25 16 26 -4 19 -14 -4 -21 -2 -21 7 0 24 15 37 58 52 23 8 54 27 69 41 16 14
36 28 46 31 16 5 16 7 4 17 -8 7 -18 26 -22 44 -6 29 -4 33 19 39 14 3 30 12
37 20 9 11 15 11 25 3 9 -7 14 -8 14 -1 0 6 -6 12 -12 14 -10 4 -8 9 3 21 15
15 18 15 33 -2 12 -13 13 -20 4 -29 -6 -6 -8 -15 -3 -19 4 -5 10 -2 12 5 3 6
12 12 21 12 10 0 22 10 27 23 12 27 59 38 49 12 -6 -15 -4 -15 14 -4 15 9 18
16 9 21 -20 12 6 29 47 31 52 3 45 17 -9 17 -27 0 -45 5 -45 11 0 7 -8 17 -17
24 -15 11 -15 13 6 25 20 10 22 10 17 -7 -16 -53 51 -55 76 -2 l15 31 14 -31
c13 -30 37 -45 26 -17 -3 7 1 23 9 35 8 12 13 25 10 29 -2 4 4 8 14 9 16 1 18
-4 14 -33 -5 -40 10 -38 20 2 4 15 2 32 -5 40 -18 22 33 66 67 58 20 -5 23 -3
18 10 -5 12 0 19 15 23 11 3 21 10 21 15 0 5 4 7 9 3 5 -3 12 4 16 15 5 16 15
20 53 21 38 0 43 2 25 9 -22 9 -32 21 -15 19 26 -4 62 3 57 11 -3 6 -1 10 5
10 6 0 18 7 26 15 9 8 25 15 37 15 18 0 19 -2 7 -10 -20 -12 -9 -20 19 -13 17
4 22 11 18 29 -3 15 1 25 12 27 9 3 17 5 19 6 2 0 10 -6 19 -14z m1136 -33
c21 -21 35 -41 31 -44 -3 -4 2 -16 12 -27 22 -23 57 -81 50 -81 -3 0 -26 30
-52 68 -26 37 -59 79 -73 95 -38 42 -10 32 32 -11z m107 -17 c0 -3 -4 -3 -10
0 -5 3 -10 2 -10 -4 0 -17 22 -24 32 -10 7 10 8 8 3 -7 -5 -19 16 -49 34 -49
3 0 5 -7 4 -15 -1 -8 5 -18 12 -23 14 -7 45 -63 45 -80 0 -5 -7 -4 -15 3 -8 7
-15 18 -15 25 0 7 -25 43 -56 81 -67 83 -69 84 -60 59 4 -11 3 -16 -1 -11 -4
4 -8 18 -8 31 -1 19 2 22 12 13 9 -7 13 -7 13 0 0 6 -4 14 -10 17 -5 3 -10 11
-10 17 0 6 9 -1 20 -15 11 -14 20 -28 20 -32z m-1140 35 c0 -5 -8 -10 -17 -10
-14 0 -15 -2 -4 -9 20 -13 -1 -20 -29 -9 l-25 9 25 14 c30 17 50 19 50 5z
m1019 -85 c10 -12 21 -27 25 -35 11 -21 -51 49 -76 85 l-20 30 27 -30 c15 -16
35 -39 44 -50z m-974 55 c-3 -5 -10 -10 -16 -10 -5 0 -9 5 -9 10 0 6 7 10 16
10 8 0 12 -4 9 -10z m-153 -22 c-9 -9 -15 -9 -24 0 -9 9 -7 12 12 12 19 0 21
-3 12 -12z m1346 -38 c12 -16 22 -34 22 -40 0 -6 4 -9 9 -6 9 6 21 -15 28 -49
2 -11 8 -21 13 -23 14 -5 12 -22 -2 -19 -19 3 -38 24 -38 41 0 8 -4 18 -10 21
-5 3 -10 14 -10 23 0 9 -11 30 -25 46 -27 32 -29 36 -17 36 5 0 18 -13 30 -30z
m-153 -107 c8 -39 -6 -43 -25 -8 -7 14 -17 25 -22 25 -5 0 -7 4 -3 10 3 5 13
6 23 3 15 -6 16 -5 3 13 -14 17 -13 18 1 4 9 -8 19 -30 23 -47z m-907 -19 c2
-1 -3 -4 -10 -7 -7 -2 -22 7 -32 20 l-19 25 29 -18 c16 -10 30 -19 32 -20z
m787 -20 c20 -21 40 -32 46 -28 8 5 9 3 4 -6 -5 -8 -1 -18 10 -27 11 -7 16
-13 12 -13 -12 0 27 -41 62 -65 18 -13 38 -33 45 -46 6 -12 16 -22 21 -23 6 0
20 -14 32 -31 12 -16 29 -40 38 -51 9 -12 18 -32 20 -44 4 -20 3 -21 -17 -8
-12 8 -24 21 -26 29 -2 8 3 5 11 -6 8 -11 18 -17 21 -14 4 3 -2 17 -13 30 -12
14 -20 18 -21 11 0 -15 -20 -6 -20 9 0 6 5 7 10 4 15 -9 12 11 -4 24 -11 10
-16 8 -21 -9 -7 -23 -2 -31 69 -100 31 -30 35 -39 22 -41 -14 -3 -12 -11 16
-42 50 -55 71 -94 53 -94 -8 0 -17 9 -21 19 -3 10 -11 24 -17 30 -7 7 -27 32
-45 56 -19 23 -38 42 -44 42 -10 0 29 -70 46 -82 6 -4 6 -15 -1 -31 -7 -14 -9
-35 -6 -48 5 -17 3 -20 -7 -14 -9 5 -11 4 -6 -4 4 -6 11 -9 15 -7 4 3 13 -10
20 -29 8 -23 18 -33 30 -32 11 1 17 7 14 14 -4 9 0 11 11 7 10 -4 15 -13 12
-20 -3 -8 -2 -13 2 -13 18 3 22 -2 10 -15 -7 -8 -16 -12 -19 -10 -12 7 -5 -31
8 -44 7 -7 16 -25 20 -40 3 -15 17 -43 29 -62 20 -30 29 -56 33 -92 1 -4 8
-14 17 -22 8 -9 12 -20 9 -26 -9 -15 -25 -12 -25 5 0 8 -9 23 -20 32 -11 10
-20 21 -20 25 0 5 -18 37 -40 72 -22 35 -40 66 -40 70 0 4 -9 16 -20 28 -19
21 -28 54 -12 44 4 -2 8 4 8 14 0 10 -4 16 -8 14 -5 -3 -8 -2 -7 3 3 18 -2 30
-20 49 -23 25 -39 70 -21 59 7 -4 5 6 -5 26 -11 24 -12 29 -2 16 13 -16 15
-16 21 -2 3 9 2 14 -3 11 -15 -10 -44 33 -44 65 0 19 -5 28 -12 25 -17 -6 -28
4 -49 49 -11 22 -22 44 -25 49 -2 5 1 6 8 2 7 -5 17 -18 22 -29 5 -12 16 -33
24 -47 12 -20 15 -22 15 -6 0 12 5 16 15 12 26 -10 -2 33 -30 46 -27 12 -38
44 -24 70 8 15 13 17 25 7 8 -6 14 -7 14 -1 0 5 -7 15 -15 22 -8 7 -15 9 -15
5 0 -4 -7 -2 -15 5 -10 9 -12 17 -5 30 8 15 6 18 -8 15 -20 -3 -44 14 -37 26
8 11 -89 122 -110 127 -5 1 -11 7 -11 12 -1 6 -2 15 -3 21 -1 8 -5 8 -16 -1
-8 -7 -12 -17 -8 -23 4 -6 1 -7 -6 -2 -9 5 -10 10 -2 18 17 17 13 27 -6 21
-15 -5 -16 -4 -3 5 20 14 16 16 55 -25z m50 -4 c-3 -5 -12 -7 -20 -3 -21 7
-19 13 6 13 11 0 18 -4 14 -10z m265 -32 c0 -6 -7 -5 -15 2 -8 7 -15 17 -15
22 0 6 7 5 15 -2 8 -7 15 -17 15 -22z m48 -4 c-4 -3 -12 5 -18 18 -12 22 -12
22 6 6 10 -10 15 -20 12 -24z m66 10 c3 -8 2 -12 -4 -9 -6 3 -10 10 -10 16 0
14 7 11 14 -7z m-2154 -9 c-30 -17 -40 -18 -40 -6 0 10 22 18 50 19 8 1 4 -5
-10 -13z m85 -5 c-3 -5 -11 -10 -16 -10 -6 0 -7 5 -4 10 3 6 11 10 16 10 6 0
7 -4 4 -10z m1735 -15 c7 -9 8 -15 2 -15 -5 0 -12 7 -16 15 -3 8 -4 15 -2 15
2 0 9 -7 16 -15z m261 -6 c8 -15 8 -24 1 -28 -7 -4 -8 -12 -2 -21 9 -13 10
-13 10 0 1 8 10 -1 20 -20 20 -35 20 -35 13 -5 l-6 30 43 -42 c38 -35 42 -44
31 -57 -8 -9 -9 -16 -3 -16 6 0 18 -20 27 -45 10 -25 24 -50 31 -56 8 -6 14
-20 14 -30 0 -11 4 -19 9 -19 12 0 47 -68 56 -109 8 -37 -6 -36 -26 1 -8 15
-8 19 0 14 15 -10 13 5 -3 26 -7 10 -16 15 -19 11 -4 -3 -7 1 -7 11 0 20 -26
74 -48 99 -9 10 -17 24 -18 32 -3 21 -37 64 -51 65 -7 0 -10 7 -7 15 4 8 1 15
-5 15 -6 0 -19 16 -28 35 -9 19 -20 32 -25 29 -5 -3 -15 2 -23 12 -10 14 -10
21 -2 26 9 6 9 12 -1 28 -7 11 -8 20 -2 20 5 0 14 -10 21 -21z m72 -29 c7 0 6
4 -3 10 -8 5 -12 12 -9 15 11 10 28 -20 20 -34 -6 -10 -12 -9 -25 4 -9 9 -16
22 -16 28 0 7 5 4 11 -5 5 -10 15 -18 22 -18z m-2083 10 c0 -5 -4 -10 -10 -10
-5 0 -10 5 -10 10 0 6 5 10 10 10 6 0 10 -4 10 -10z m1667 -12 c-3 -8 -6 -5
-6 6 -1 11 2 17 5 13 3 -3 4 -12 1 -19z m270 -52 c8 -16 25 -40 37 -53 12 -13
30 -38 40 -56 l17 -32 -25 30 c-45 51 -131 181 -107 160 13 -11 30 -33 38 -49z
m-2042 35 c-3 -6 -11 -8 -17 -5 -6 4 -5 9 3 15 16 10 23 4 14 -10z m2244 -39
c20 -30 21 -34 5 -22 -24 18 -44 41 -44 52 0 18 16 6 39 -30z m-412 5 c6 -4
30 -29 52 -56 38 -45 40 -50 23 -62 -9 -7 -14 -10 -10 -5 4 4 -5 19 -20 32
-22 19 -23 23 -7 17 20 -6 20 -6 1 15 -11 12 -22 20 -24 17 -6 -6 -52 35 -52
46 0 9 20 7 37 -4z m278 -13 c9 -15 12 -23 6 -20 -11 7 -35 46 -28 46 3 0 12
-12 22 -26z m-2105 1 c0 -8 -7 -15 -15 -15 -26 0 -18 20 13 29 1 1 2 -6 2 -14z
m1730 -10 c11 -13 10 -14 -4 -9 -9 3 -16 10 -16 15 0 13 6 11 20 -6z m514 -40
c-8 -19 0 -19 19 0 14 13 18 10 37 -22 14 -24 16 -32 6 -24 -24 20 -19 -1 9
-39 14 -19 25 -28 25 -20 0 7 3 11 6 7 3 -3 3 -11 -1 -17 -5 -8 -17 0 -36 22
-32 37 -37 32 -13 -13 8 -17 14 -33 11 -35 -2 -2 -12 15 -23 38 -10 24 -23 47
-29 51 -6 5 -2 6 9 3 16 -5 17 -4 6 9 -7 8 -16 13 -20 10 -10 -6 -22 24 -14
36 9 14 14 10 8 -6z m-401 -20 c10 -14 14 -25 10 -25 -4 0 -16 12 -26 25 -10
14 -14 25 -10 25 4 0 16 -12 26 -25z m287 -85 c13 -14 25 -32 25 -40 0 -8 5
-14 12 -13 6 2 15 -6 18 -17 3 -11 17 -28 29 -38 25 -19 56 -72 56 -94 0 -7
-6 -4 -12 7 -6 11 -14 22 -17 25 -4 3 -12 18 -19 34 -7 16 -15 26 -18 23 -3
-3 0 -16 6 -29 14 -26 4 -17 -28 26 -24 31 -29 28 -11 -7 18 -37 -54 52 -83
101 -15 26 -31 46 -36 45 -6 -1 -8 7 -5 17 7 27 10 25 29 -12 10 -20 19 -28
22 -20 2 7 -3 21 -12 31 -9 10 -16 22 -15 27 0 5 8 -2 17 -16 9 -14 28 -36 42
-50z m-2324 13 c14 -21 1 -43 -25 -42 -12 0 -11 2 4 9 11 5 14 9 8 9 -7 1 -13
10 -13 21 0 25 9 25 26 3z m2094 -97 c0 -10 -28 26 -47 61 -24 43 -13 38 17
-7 16 -25 30 -49 30 -54z m-16 78 c3 -8 2 -12 -4 -9 -6 3 -10 10 -10 16 0 14
7 11 14 -7z m366 -43 c0 -10 -7 -6 -20 14 -11 17 -20 35 -20 40 1 17 40 -36
40 -54z m110 15 c0 -3 -4 -8 -10 -11 -5 -3 -10 -1 -10 4 0 6 5 11 10 11 6 0
10 -2 10 -4z m-270 -51 c0 -5 -5 -3 -10 5 -5 8 -10 20 -10 25 0 6 5 3 10 -5 5
-8 10 -19 10 -25z m-230 -50 c0 -5 -5 -3 -10 5 -5 8 -10 20 -10 25 0 6 5 3 10
-5 5 -8 10 -19 10 -25z m74 24 c-6 -11 22 -66 37 -71 7 -2 10 -10 7 -18 -2 -8
-17 7 -36 38 -37 60 -36 59 -17 59 8 0 12 -4 9 -8z m196 -50 c0 -6 -11 3 -25
19 -14 17 -25 34 -25 38 1 12 50 -45 50 -57z m84 -25 c3 -8 2 -12 -4 -9 -6 3
-10 10 -10 16 0 14 7 11 14 -7z m106 -4 c6 -11 8 -20 6 -20 -3 0 -10 9 -16 20
-6 11 -8 20 -6 20 3 0 10 -9 16 -20z m-202 -56 c7 8 42 -24 42 -38 0 -6 -4 -5
-9 3 -6 8 -11 9 -15 3 -4 -6 4 -20 16 -31 12 -12 18 -21 13 -21 -5 0 2 -11 15
-25 13 -14 20 -28 17 -32 -4 -3 -8 -4 -10 -2 -3 3 -43 63 -94 138 -2 2 -6 1
-9 -2 -4 -4 -1 -13 5 -21 9 -11 10 -20 2 -33 -9 -17 -10 -17 -17 2 -4 11 -13
35 -20 53 -7 18 -11 39 -7 48 4 11 12 8 35 -17 16 -17 32 -28 36 -25z m-688
36 c0 -5 -2 -10 -4 -10 -3 0 -8 5 -11 10 -3 6 -1 10 4 10 6 0 11 -4 11 -10z
m810 -21 c0 -6 -4 -7 -10 -4 -5 3 -10 11 -10 16 0 6 5 7 10 4 6 -3 10 -11 10
-16z m-246 -39 c20 -28 36 -56 36 -63 -1 -6 -8 0 -16 16 -8 15 -18 27 -22 27
-5 0 -16 16 -25 35 -9 19 -15 35 -13 35 2 0 20 -23 40 -50z m410 11 c-3 -3
-12 3 -22 14 -9 10 -11 15 -4 11 7 -4 12 -2 13 6 0 7 4 4 8 -7 5 -11 7 -22 5
-24z m-104 9 c6 -11 8 -20 6 -20 -3 0 -10 9 -16 20 -6 11 -8 20 -6 20 3 0 10
-9 16 -20z m-24 -48 c-3 -3 -6 0 -6 7 0 7 -4 10 -9 7 -5 -3 -8 6 -8 21 l0 27
14 -28 c8 -15 12 -30 9 -34z m-376 28 c6 -11 8 -20 6 -20 -3 0 -10 9 -16 20
-6 11 -8 20 -6 20 3 0 10 -9 16 -20z m60 -12 c0 -5 -7 -3 -15 6 -8 8 -15 18
-15 22 0 3 7 1 15 -6 8 -7 15 -17 15 -22z m248 -3 c6 -14 10 -25 8 -25 -2 0
-11 11 -20 25 -9 14 -13 25 -8 25 5 0 14 -11 20 -25z m182 -26 c0 -6 -4 -7
-10 -4 -5 3 -10 11 -10 16 0 6 5 7 10 4 6 -3 10 -11 10 -16z m70 -57 c0 -7 11
-18 25 -24 14 -6 25 -18 25 -26 0 -12 -2 -12 -17 -1 -11 10 -14 10 -9 2 4 -7
5 -13 2 -13 -10 0 -56 99 -55 117 1 20 28 -32 29 -55z m-2820 48 c0 -5 -4 -10
-10 -10 -5 0 -10 5 -10 10 0 6 5 10 10 10 6 0 10 -4 10 -10z m2350 -35 c0 -6
13 -32 30 -56 31 -47 36 -59 21 -59 -5 0 -13 10 -17 23 -3 12 -12 29 -18 37
-7 8 -20 33 -30 54 -15 33 -15 38 -2 27 9 -8 16 -19 16 -26z m-250 -20 c0 -5
-5 -3 -10 5 -5 8 -10 20 -10 25 0 6 5 3 10 -5 5 -8 10 -19 10 -25z m-102 -20
c-3 -3 -9 2 -12 12 -6 14 -5 15 5 6 7 -7 10 -15 7 -18z m525 -15 c18 -46 6
-45 -17 2 -18 36 -19 38 -8 38 5 0 16 -18 25 -40z m-393 -15 c0 -5 -5 -3 -10
5 -5 8 -10 20 -10 25 0 6 5 3 10 -5 5 -8 10 -19 10 -25z m455 5 c3 -6 -1 -7
-9 -4 -18 7 -21 14 -7 14 6 0 13 -4 16 -10z m-2720 -20 c3 -5 2 -10 -4 -10 -5
0 -13 5 -16 10 -3 6 -2 10 4 10 5 0 13 -4 16 -10z m3035 -35 c0 -5 -5 -3 -10
5 -5 8 -10 20 -10 25 0 6 5 3 10 -5 5 -8 10 -19 10 -25z m-862 0 c-3 -3 -9 2
-12 12 -6 14 -5 15 5 6 7 -7 10 -15 7 -18z m127 -11 c8 -20 15 -39 15 -42 0
-12 -27 33 -34 56 -12 35 2 26 19 -14z m459 0 c3 -8 2 -12 -4 -9 -6 3 -10 10
-10 16 0 14 7 11 14 -7z m286 -55 c0 -4 -5 -11 -12 -15 -7 -4 -8 -3 -4 5 4 6
0 24 -9 39 l-16 27 20 -24 c12 -13 21 -27 21 -32z m-436 -25 c5 -14 4 -15 -9
-4 -17 14 -19 20 -6 20 5 0 12 -7 15 -16z m46 -28 c0 -6 -7 -2 -15 8 -8 11
-15 25 -15 30 0 6 7 2 15 -8 8 -11 15 -25 15 -30z m-449 7 c13 -16 12 -17 -3
-4 -10 7 -18 15 -18 17 0 8 8 3 21 -13z m447 -66 c13 -16 52 -87 52 -95 0 -3
-6 1 -13 7 -19 15 -27 3 -17 -25 5 -13 8 -24 6 -24 -6 0 -46 70 -46 78 0 4 5
-1 11 -11 12 -20 29 -14 29 11 0 15 -2 15 -11 2 -9 -12 -10 -12 -5 3 8 26 -3
41 -20 26 -9 -7 -14 -8 -14 -1 0 6 5 14 10 17 7 4 5 14 -5 28 -8 12 -15 28
-14 37 0 8 6 3 12 -11 7 -14 18 -33 25 -42z m-49 13 c0 -10 -3 -8 -9 5 -12 27
-12 43 0 25 5 -8 9 -22 9 -30z m85 -16 c14 -26 26 -52 26 -58 0 -6 -14 13 -30
43 -17 30 -30 56 -30 58 0 12 12 -3 34 -43z m-364 11 c7 -9 8 -15 2 -15 -5 0
-12 7 -16 15 -3 8 -4 15 -2 15 2 0 9 -7 16 -15z m439 -44 c12 -16 21 -35 21
-43 0 -8 13 -35 29 -60 16 -25 32 -56 36 -69 4 -13 14 -33 21 -44 8 -11 14
-24 14 -29 0 -15 -24 22 -60 92 -17 34 -34 62 -36 62 -9 0 1 -45 11 -52 5 -4
6 -10 2 -14 -10 -10 -17 -1 -22 26 -3 13 -8 26 -13 29 -22 15 -43 79 -22 66 6
-4 7 -11 4 -17 -4 -6 -2 -8 3 -5 6 4 13 -3 16 -15 4 -12 9 -19 12 -16 7 7 -30
84 -45 93 -5 3 -10 10 -10 16 0 18 19 9 39 -20z m-324 -101 c9 -16 13 -30 11
-30 -3 0 -12 14 -21 30 -9 17 -13 30 -11 30 3 0 12 -13 21 -30z m135 -5 c0 -9
14 -42 30 -75 17 -33 30 -67 29 -77 0 -14 -2 -15 -6 -3 -3 8 -20 47 -39 86
-37 78 -39 84 -24 84 6 0 10 -7 10 -15z m-350 -26 c6 -11 13 -37 16 -57 2 -20
6 -50 9 -67 2 -16 6 -58 9 -93 3 -53 2 -62 -11 -58 -8 3 -19 6 -24 6 -5 0 -9
7 -9 16 0 10 6 14 15 10 18 -7 20 16 4 47 -7 11 -13 37 -14 57 -2 19 -6 63
-10 98 -8 65 -3 76 15 41z m511 -39 c40 -40 50 -79 28 -110 -8 -11 -9 -4 -6
28 5 37 2 44 -16 52 -20 7 -66 70 -52 70 4 0 24 -18 46 -40z m-61 -5 c0 -5 -5
-3 -10 5 -5 8 -10 20 -10 25 0 6 5 3 10 -5 5 -8 10 -19 10 -25z m120 -11 c0 5
9 -3 21 -18 11 -14 19 -32 16 -39 -3 -6 -10 1 -16 16 -6 16 -15 26 -20 23 -4
-3 -13 7 -20 22 -11 25 -10 26 4 8 8 -11 15 -16 15 -12z m-211 -14 c11 -24 11
-24 -3 -6 -9 11 -16 24 -16 30 0 12 5 7 19 -24z m121 -15 c7 -14 17 -25 22
-25 4 0 8 -6 8 -14 0 -17 136 -283 157 -307 8 -9 13 -20 11 -25 -1 -5 6 -24
16 -42 9 -18 15 -39 12 -45 -2 -7 -5 -4 -5 6 -1 9 -5 17 -9 17 -12 0 -33 50
-27 61 4 5 1 9 -5 9 -6 0 -32 45 -57 100 -25 55 -50 100 -56 100 -5 0 -7 -9
-4 -19 3 -11 0 -22 -7 -24 -6 -3 -11 7 -11 23 0 16 3 26 8 23 15 -9 6 16 -37
100 -25 48 -41 87 -37 87 4 0 14 -11 21 -25z m50 -5 c0 -5 -2 -10 -4 -10 -3 0
-8 5 -11 10 -3 6 -1 10 4 10 6 0 11 -4 11 -10z m70 -95 c0 -5 -5 -3 -11 5 -9
12 -10 11 -6 -7 7 -31 1 -29 -17 8 -22 43 -9 70 15 32 11 -15 19 -32 19 -38z
m29 48 c-1 -10 4 -31 10 -48 7 -16 21 -52 31 -80 10 -27 34 -87 54 -132 19
-46 32 -83 28 -83 -4 0 -23 38 -42 85 -19 46 -38 85 -42 85 -4 0 -15 16 -23
36 -17 41 -19 56 -5 34 20 -31 10 11 -12 49 -12 21 -19 45 -15 54 8 22 19 22
16 0z m-145 -9 c3 -8 2 -12 -4 -9 -6 3 -10 10 -10 16 0 14 7 11 14 -7z m201
-12 c-3 -3 0 -11 6 -19 7 -7 7 -13 2 -13 -5 0 -15 11 -21 25 -16 34 -15 40 3
25 9 -7 13 -15 10 -18z m-256 -26 c-3 -3 -11 5 -18 17 -13 21 -12 21 5 5 10
-10 16 -20 13 -22z m26 24 c-3 -5 -1 -10 4 -10 6 0 11 -8 11 -17 0 -16 -1 -16
-16 -1 -14 14 -13 38 2 38 3 0 2 -4 -1 -10z m5 -72 c0 -5 -7 -3 -15 6 -8 8
-15 18 -15 22 0 3 7 1 15 -6 8 -7 15 -17 15 -22z m23 7 c4 -8 2 -17 -3 -20 -6
-4 -10 3 -10 14 0 25 6 27 13 6z m147 -66 c0 -19 -20 -8 -35 21 -22 42 -19 47
10 16 14 -15 25 -31 25 -37z m-2490 42 c0 -12 -20 -25 -27 -18 -7 7 6 27 18
27 5 0 9 -4 9 -9z m2285 -21 c14 -27 21 -59 10 -49 -8 9 -35 79 -30 79 2 0 11
-13 20 -30z m85 -15 c0 -5 -5 -3 -10 5 -5 8 -10 20 -10 25 0 6 5 3 10 -5 5 -8
10 -19 10 -25z m270 -61 c0 -3 -5 -2 -12 2 -7 5 -9 2 -6 -7 20 -49 21 -54 3
-31 -9 13 -14 30 -11 39 4 10 -1 21 -14 30 -11 8 -20 19 -20 26 0 6 14 -3 30
-21 17 -18 30 -35 30 -38z m-199 14 c11 -21 11 -22 -4 -9 -10 7 -17 17 -17 22
0 15 9 10 21 -13z m64 13 c3 -5 2 -12 -3 -15 -5 -3 -9 1 -9 9 0 17 3 19 12 6z
m-548 -33 c-3 -7 -5 -2 -5 12 0 14 2 19 5 13 2 -7 2 -19 0 -25z m457 -44 c3
-8 2 -12 -4 -9 -6 3 -10 10 -10 16 0 14 7 11 14 -7z m-27 -11 c0 -9 -4 -10
-12 -3 -7 5 -14 7 -17 4 -3 -3 -8 -1 -11 3 -3 5 5 9 17 9 12 0 23 -6 23 -13z
m187 -49 c3 -8 2 -12 -4 -9 -6 3 -10 10 -10 16 0 14 7 11 14 -7z m-147 -36
c-3 -8 -6 -5 -6 6 -1 11 2 17 5 13 3 -3 4 -12 1 -19z m-434 -8 c3 -11 1 -23
-4 -26 -5 -3 -9 6 -9 20 0 31 6 34 13 6z m607 -35 c0 -5 -5 -3 -10 5 -5 8 -10
20 -10 25 0 6 5 3 10 -5 5 -8 10 -19 10 -25z m50 -35 c0 -13 -1 -13 -10 0 -5
8 -10 22 -10 30 0 13 1 13 10 0 5 -8 10 -22 10 -30z m89 -45 c0 -5 -8 6 -19
25 -11 19 -19 40 -19 45 0 6 8 -6 19 -25 11 -19 19 -39 19 -45z m-269 1 c0
-12 -5 -7 -19 24 -11 24 -11 24 3 6 9 -11 16 -24 16 -30z m-2929 19 c6 4 15 2
19 -6 15 -23 0 -30 -30 -14 -16 8 -33 15 -37 14 -24 -4 -34 4 -13 10 14 4 30
4 37 -1 7 -6 17 -7 24 -3z m3183 -165 c35 -91 67 -178 71 -195 l6 -30 -15 30
c-8 17 -31 75 -51 130 -21 55 -48 129 -61 164 -13 35 -24 66 -24 69 0 15 14
-18 74 -168z m-100 110 c-6 -5 -24 21 -24 34 0 6 6 1 14 -10 8 -10 12 -21 10
-24z m190 -16 c3 -8 2 -12 -4 -9 -6 3 -10 10 -10 16 0 14 7 11 14 -7z m-3309
-4 c3 -5 2 -10 -4 -10 -5 0 -13 5 -16 10 -3 6 -2 10 4 10 5 0 13 -4 16 -10z
m3013 -35 c-3 -3 -9 2 -12 12 -6 14 -5 15 5 6 7 -7 10 -15 7 -18z m-2931 -101
c-3 -3 -12 -4 -19 -1 -8 3 -5 6 6 6 11 1 17 -2 13 -5z m3231 -215 c-3 -8 -7
-3 -11 10 -4 17 -3 21 5 13 5 -5 8 -16 6 -23z m22 -59 c0 -13 -1 -13 -10 0 -5
8 -10 22 -10 30 0 13 1 13 10 0 5 -8 10 -22 10 -30z m-3871 -106 c14 -8 31
-14 37 -14 7 0 14 -7 18 -15 3 -9 0 -15 -8 -15 -8 0 -16 7 -20 15 -3 8 -15 15
-28 15 -16 0 -19 -3 -11 -11 6 -6 9 -18 6 -25 -4 -10 4 -14 31 -14 34 0 35 -1
26 -25 -6 -17 -6 -25 1 -25 6 0 8 -4 5 -8 -3 -5 -22 -8 -42 -8 -32 2 -37 5
-40 29 -1 15 -10 34 -18 43 -9 8 -16 21 -15 27 0 9 2 8 6 0 7 -19 20 -16 26 7
4 17 1 20 -21 18 -19 -2 -27 2 -30 15 -3 15 1 17 24 11 15 -4 39 -13 53 -20z
m112 -118 c-12 -12 -18 -26 -14 -29 3 -4 1 -7 -5 -7 -16 0 -15 27 1 33 8 4 8
8 2 14 -5 4 -11 17 -13 28 -2 19 -2 19 12 2 13 -16 14 -16 21 5 l8 23 4 -23
c3 -15 -3 -32 -16 -46z m3968 -811 c0 -5 -4 -3 -9 5 -5 8 -9 22 -9 30 0 16 17
-16 18 -35z m699 -60 c-3 -3 -9 2 -12 12 -6 14 -5 15 5 6 7 -7 10 -15 7 -18z
m-169 -238 c40 -97 80 -183 158 -345 36 -76 77 -164 90 -197 13 -33 21 -46 18
-30 -4 24 -3 27 5 13 6 -10 13 -34 16 -55 2 -20 7 -39 11 -42 3 -3 3 4 0 17
-3 13 -1 20 5 16 5 -3 7 -17 4 -30 -4 -13 -2 -24 3 -24 5 0 12 -14 16 -30 4
-18 11 -27 18 -23 7 4 8 0 3 -12 -4 -10 -3 -21 2 -24 4 -3 19 -33 32 -65 13
-33 25 -55 27 -49 6 16 -12 79 -57 198 -23 61 -44 118 -47 128 -3 9 -9 17 -13
17 -4 0 -13 27 -19 60 -7 33 -19 77 -28 97 -36 87 -63 164 -54 159 4 -3 13
-18 19 -33 66 -175 82 -221 82 -236 0 -10 14 -45 31 -79 17 -34 44 -101 59
-148 15 -47 37 -107 49 -134 12 -27 19 -57 16 -67 -3 -9 -1 -20 5 -24 5 -3 10
-17 10 -30 0 -13 3 -31 6 -40 6 -13 9 -14 16 -3 8 10 9 9 4 -4 -3 -10 1 -32 9
-50 11 -25 14 -28 15 -13 1 11 10 -6 20 -37 10 -31 26 -69 35 -85 12 -20 12
-23 1 -8 -48 62 -48 63 -41 31 5 -25 4 -28 -8 -18 -8 7 -17 30 -20 53 -3 22
-18 70 -34 107 -32 77 -113 222 -113 204 0 -7 5 -21 12 -31 9 -15 9 -26 0 -45
-6 -14 -10 -31 -8 -38 3 -7 7 -29 10 -48 5 -25 3 -31 -5 -23 -6 6 -15 62 -20
124 -9 115 -25 189 -40 189 -5 0 -14 18 -20 40 -7 22 -18 40 -25 40 -14 0 -18
12 -29 74 -4 22 -14 49 -22 60 -14 20 -15 18 -9 -22 12 -82 19 -167 13 -162
-7 7 -29 132 -32 185 -3 46 -32 152 -45 160 -4 3 -11 17 -15 32 -3 15 -22 61
-42 102 -20 42 -49 105 -65 140 -45 101 -61 135 -67 146 -2 6 2 4 11 -3 9 -7
30 -46 47 -85z m28 -219 c-3 -7 -5 -2 -5 12 0 14 2 19 5 13 2 -7 2 -19 0 -25z
m227 -38 c14 -27 22 -50 17 -50 -6 0 -21 23 -35 50 -14 28 -21 50 -17 50 5 0
21 -22 35 -50z m-217 -32 c-2 -13 -4 -5 -4 17 -1 22 1 32 4 23 2 -10 2 -28 0
-40z m10 -90 c-2 -13 -4 -5 -4 17 -1 22 1 32 4 23 2 -10 2 -28 0 -40z m268 22
c17 -33 19 -44 6 -36 -10 6 -33 66 -26 66 3 0 11 -13 20 -30z m-60 -122 c4
-37 3 -39 -6 -18 -6 14 -12 35 -14 48 -1 13 -7 28 -14 35 -6 6 -11 22 -10 37
1 22 3 20 20 -17 10 -22 21 -61 24 -85z m-118 70 c-3 -8 -6 -5 -6 6 -1 11 2
17 5 13 3 -3 4 -12 1 -19z m218 -18 c3 -5 1 -10 -4 -10 -6 0 -11 5 -11 10 0 6
2 10 4 10 3 0 8 -4 11 -10z m-298 -32 c-3 -7 -5 -2 -5 12 0 14 2 19 5 13 2 -7
2 -19 0 -25z m53 -34 c0 -8 -4 -12 -10 -9 -5 3 -10 10 -10 16 0 5 5 9 10 9 6
0 10 -7 10 -16z m270 -38 c0 -8 6 -19 14 -25 8 -7 23 -38 34 -69 11 -31 23
-65 27 -74 4 -10 3 -18 -3 -18 -5 0 -12 8 -15 18 -7 22 -40 106 -61 155 -10
22 -12 36 -7 32 6 -3 11 -12 11 -19z m-294 -119 c4 -37 11 -70 15 -73 12 -7
12 -64 0 -64 -5 0 -7 9 -4 20 3 11 1 20 -4 20 -13 0 -32 -162 -21 -177 11 -14
-8 -83 -23 -83 -6 0 -8 -8 -5 -17 7 -23 -24 -116 -47 -143 -10 -12 -12 -20 -5
-20 7 0 3 -6 -8 -14 -23 -18 -32 -2 -11 22 8 9 17 35 21 57 l7 40 -41 -63
c-24 -37 -45 -60 -51 -56 -6 3 -7 9 -3 13 13 9 34 73 34 103 0 13 3 28 8 32 4
4 7 17 8 29 1 12 9 54 18 94 10 39 24 120 31 180 13 96 14 99 11 33 -4 -68 9
-76 15 -10 1 18 4 14 9 -15 4 -23 8 -30 9 -17 0 13 6 20 11 17 6 -3 13 1 17
10 3 10 1 20 -5 24 -17 11 -33 59 -20 63 6 2 11 31 10 68 0 56 1 60 8 30 5
-19 12 -65 16 -103z m34 114 c0 -6 -4 -13 -10 -16 -5 -3 -10 1 -10 9 0 9 5 16
10 16 6 0 10 -4 10 -9z m0 -66 c0 -14 -4 -25 -10 -25 -5 0 -10 11 -10 25 0 14
5 25 10 25 6 0 10 -11 10 -25z m-103 -17 c-3 -8 -6 -5 -6 6 -1 11 2 17 5 13 3
-3 4 -12 1 -19z m90 -50 c-3 -8 -6 -5 -6 6 -1 11 2 17 5 13 3 -3 4 -12 1 -19z
m150 -15 c-3 -10 -5 -4 -5 12 0 17 2 24 5 18 2 -7 2 -21 0 -30z m303 -35 c0
-18 -27 11 -33 35 -6 22 -6 22 14 -2 10 -13 19 -28 19 -33z m-70 -54 c11 -25
20 -54 20 -64 0 -10 4 -20 8 -22 7 -3 72 -150 72 -163 0 -3 -4 -5 -9 -5 -5 0
-15 17 -21 38 -12 35 -22 62 -57 139 -14 33 -43 113 -43 119 0 16 14 -3 30
-42z m-3860 21 c0 -8 -2 -15 -4 -15 -2 0 -6 7 -10 15 -3 8 -1 15 4 15 6 0 10
-7 10 -15z m3497 -22 c-3 -10 -5 -4 -5 12 0 17 2 24 5 18 2 -7 2 -21 0 -30z
m193 -16 c0 -18 -2 -19 -10 -7 -13 20 -13 43 0 35 6 -3 10 -16 10 -28z m241
-80 c11 -22 18 -41 15 -44 -5 -5 -56 90 -56 104 0 10 16 -12 41 -60z m-2581
-2 c0 -8 -4 -15 -10 -15 -5 0 -10 7 -10 15 0 8 5 15 10 15 6 0 10 -7 10 -15z
m2177 -52 c-2 -16 -4 -5 -4 22 0 28 2 40 4 28 2 -13 2 -35 0 -50z m-70 15 c-3
-8 -6 -5 -6 6 -1 11 2 17 5 13 3 -3 4 -12 1 -19z m-2106 -65 c-9 -16 -10 -16
-11 4 0 12 3 30 7 40 7 16 8 16 11 -4 2 -12 -1 -30 -7 -40z m2431 -41 c7 -7
13 -21 15 -30 1 -10 5 -33 8 -52 4 -21 -4 -8 -20 35 -28 74 -44 129 -25 86 6
-14 16 -31 22 -39z m-2404 40 c-13 -31 -62 -111 -65 -108 -6 6 51 115 60 115
5 1 7 -2 5 -7z m2148 -117 c6 -100 6 -166 0 -172 -3 -4 -7 21 -8 55 -2 79 -4
104 -12 172 -5 44 -4 50 5 30 6 -14 12 -52 15 -85z m-2085 31 c24 -84 27 -131
13 -225 -8 -51 -17 -97 -20 -102 -5 -9 -38 -151 -55 -239 -23 -119 -39 -159
-85 -206 -25 -24 -50 -42 -55 -38 -6 4 -15 0 -20 -7 -6 -10 -14 0 -31 36 -35
80 -37 221 -4 356 39 156 106 314 191 450 31 48 48 42 66 -25z m2306 -68 c-3
-8 -6 -5 -6 6 -1 11 2 17 5 13 3 -3 4 -12 1 -19z m-247 -2 c0 -3 -4 -8 -10
-11 -5 -3 -10 -1 -10 4 0 6 5 11 10 11 6 0 10 -2 10 -4z m-765 -25 c-3 -6 -11
-11 -17 -11 -6 0 -6 6 2 15 14 17 26 13 15 -4z m920 -33 c28 -63 42 -111 26
-88 -8 11 -9 6 -5 -20 4 -19 11 -39 16 -45 6 -6 7 1 3 20 -5 23 -1 19 20 -20
15 -27 31 -54 36 -60 15 -15 10 -24 -10 -22 -15 1 -17 4 -9 14 7 9 6 14 -6 19
-9 3 -16 12 -16 20 0 8 -5 14 -10 14 -6 0 -8 -10 -4 -24 8 -35 -14 -42 -28 -9
-6 15 -12 36 -13 46 -1 9 -9 25 -17 35 -9 9 -13 23 -10 31 2 7 -1 16 -7 20 -6
4 -13 23 -16 41 -5 32 -4 33 6 13 17 -33 31 -28 27 10 -2 18 -8 31 -15 30 -7
-2 -10 4 -7 12 9 23 13 19 39 -37z m358 22 c3 -11 1 -18 -4 -14 -5 3 -9 12 -9
20 0 20 7 17 13 -6z m-169 -6 c9 -22 8 -24 -9 -18 -8 4 -15 12 -15 20 0 19 16
18 24 -2z m-96 -40 c-3 -14 -5 -12 -10 9 -3 19 -2 25 4 19 6 -6 8 -18 6 -28z
m131 -74 l-1 -35 -10 35 c-5 19 -11 46 -14 60 l-5 25 15 -25 c8 -14 15 -41 15
-60z m-1279 22 c0 -21 -2 -24 -10 -12 -13 20 -13 53 0 45 6 -3 10 -18 10 -33z
m-2720 8 c0 -5 -2 -10 -4 -10 -3 0 -8 5 -11 10 -3 6 -1 10 4 10 6 0 11 -4 11
-10z m4164 -6 c3 -8 2 -12 -4 -9 -6 3 -10 10 -10 16 0 14 7 11 14 -7z m-66
-19 c-3 -3 -9 2 -12 12 -6 14 -5 15 5 6 7 -7 10 -15 7 -18z m-1799 -40 c18 -8
37 -15 42 -15 5 0 9 -8 8 -17 0 -13 -2 -14 -6 -4 -5 11 -7 11 -15 0 -7 -11
-11 -11 -15 -1 -2 6 -11 12 -18 12 -8 0 -26 5 -42 11 -21 8 -24 12 -13 19 12
8 12 10 -3 16 -9 3 -17 11 -17 16 0 6 10 3 23 -6 12 -9 37 -23 56 -31z m1671
-6 c0 -5 -4 -9 -10 -9 -5 0 -10 7 -10 16 0 8 5 12 10 9 6 -3 10 -10 10 -16z
m-1260 -19 c8 -5 11 -10 5 -10 -5 0 -17 5 -25 10 -8 5 -10 10 -5 10 6 0 17 -5
25 -10z m1270 -31 c0 -11 -4 -17 -10 -14 -5 3 -10 15 -10 26 0 11 5 17 10 14
6 -3 10 -15 10 -26z m215 21 c3 -6 -1 -7 -9 -4 -18 7 -21 14 -7 14 6 0 13 -4
16 -10z m-156 -72 c1 -10 -4 -15 -12 -12 -9 3 -12 16 -9 37 4 27 6 29 13 12 4
-11 8 -28 8 -37z m-2026 -44 c-6 -15 28 -27 41 -14 13 13 29 13 21 0 -3 -5 0
-10 9 -10 8 0 16 3 19 8 2 4 3 2 1 -4 -1 -6 8 -16 22 -23 15 -6 24 -7 24 -1 0
6 -7 10 -17 10 -9 0 -14 2 -11 5 2 3 29 0 59 -7 30 -6 81 -12 114 -13 146 -5
160 -6 140 -14 -36 -15 -175 -38 -175 -30 0 5 -5 9 -11 9 -6 0 -8 -7 -5 -15 5
-13 0 -15 -32 -9 -20 4 -47 11 -60 15 -13 5 -38 9 -55 9 -21 0 -27 3 -19 9 7
4 25 6 40 3 19 -3 24 -1 17 6 -5 6 -33 12 -62 14 -28 2 -49 6 -47 10 5 7 -51
28 -77 28 -11 0 -19 5 -19 10 0 6 12 10 27 10 26 0 26 1 7 14 -17 13 -15 13
17 3 21 -6 35 -16 32 -23z m2037 6 c0 -5 -4 -10 -10 -10 -5 0 -10 5 -10 10 0
6 5 10 10 10 6 0 10 -4 10 -10z m167 -22 c-3 -8 -6 -5 -6 6 -1 11 2 17 5 13 3
-3 4 -12 1 -19z m-1587 2 c0 -5 -2 -10 -4 -10 -3 0 -8 5 -11 10 -3 6 -1 10 4
10 6 0 11 -4 11 -10z m-165 -10 c3 -5 2 -10 -4 -10 -5 0 -13 5 -16 10 -3 6 -2
10 4 10 5 0 13 -4 16 -10z m1595 0 c0 -5 -4 -10 -9 -10 -6 0 -13 5 -16 10 -3
6 1 10 9 10 9 0 16 -4 16 -10z m-1803 -6 c-3 -3 -12 -4 -19 -1 -8 3 -5 6 6 6
11 1 17 -2 13 -5z m53 -10 c0 -2 -7 -4 -15 -4 -8 0 -15 4 -15 10 0 5 7 7 15 4
8 -4 15 -8 15 -10z m417 10 c-3 -3 -12 -4 -19 -1 -8 3 -5 6 6 6 11 1 17 -2 13
-5z m-700 -40 c-3 -3 -12 -4 -19 -1 -8 3 -5 6 6 6 11 1 17 -2 13 -5z m146 -50
c9 -3 17 -9 17 -14 0 -10 -82 8 -95 22 -9 10 27 6 78 -8z m267 -11 c3 -2 -28
-3 -68 -2 -41 1 -77 -2 -80 -7 -11 -16 -52 -14 -52 1 0 7 10 16 23 18 25 6
169 -2 177 -10z m-330 -23 c0 -5 -19 -10 -42 -9 -33 0 -38 2 -23 9 28 12 65
12 65 0z m-2053 -226 c-3 -3 -12 -4 -19 -1 -8 3 -5 6 6 6 11 1 17 -2 13 -5z
m-485 -738 c4 -6 6 -16 3 -23 -2 -7 2 -10 8 -7 8 3 13 -5 14 -18 1 -12 9 -28
18 -34 8 -6 15 -17 15 -24 0 -7 7 -18 15 -24 22 -16 28 -217 8 -246 -12 -17
-11 -27 4 -70 17 -48 17 -51 -1 -81 -10 -17 -16 -39 -13 -50 3 -12 0 -19 -9
-19 -8 0 -14 -8 -14 -18 0 -28 -11 -34 -32 -15 -17 15 -18 15 -18 -15 0 -17 6
-32 13 -35 8 -3 5 -7 -7 -13 -13 -5 -21 -3 -24 4 -2 7 -14 12 -26 12 -21 0
-24 6 -31 63 -4 34 -7 71 -6 82 0 10 -5 25 -10 32 -6 7 -12 56 -13 110 -2 54
-6 106 -10 115 -5 10 -5 39 -2 65 3 27 7 58 7 71 1 12 7 22 15 22 17 0 18 16
2 24 -10 5 -10 7 0 12 6 3 12 12 12 19 0 7 -6 16 -12 19 -10 5 -10 7 0 12 7 3
17 17 22 30 8 21 14 23 37 18 16 -4 31 -12 35 -18z"/>
<path d="M6696 8573 c-6 -14 -5 -15 5 -6 7 7 10 15 7 18 -3 3 -9 -2 -12 -12z"/>
<path d="M5620 8291 c0 -9 30 -24 36 -18 2 1 -6 8 -16 15 -11 7 -20 8 -20 3z"/>
<path d="M5110 8090 c0 -5 5 -10 11 -10 5 0 7 5 4 10 -3 6 -8 10 -11 10 -2 0
-4 -4 -4 -10z"/>
<path d="M5065 8059 c-11 -17 1 -21 15 -4 8 9 8 15 2 15 -6 0 -14 -5 -17 -11z"/>
<path d="M4770 7916 c0 -16 5 -26 15 -26 8 0 15 2 15 4 0 2 3 13 7 23 3 10 3
15 -2 11 -4 -4 -14 -3 -22 3 -10 9 -13 6 -13 -15z"/>
<path d="M4721 7921 c-8 -5 -9 -11 -3 -15 5 -3 15 1 22 9 14 16 3 20 -19 6z"/>
<path d="M4617 7754 c-8 -8 3 -34 14 -34 5 0 9 9 9 20 0 19 -11 26 -23 14z"/>
<path d="M4770 7669 c0 -5 5 -7 10 -4 6 3 10 8 10 11 0 2 -4 4 -10 4 -5 0 -10
-5 -10 -11z"/>
<path d="M4630 7590 c0 -5 5 -10 10 -10 6 0 10 5 10 10 0 6 -4 10 -10 10 -5 0
-10 -4 -10 -10z"/>
<path d="M4480 7460 c0 -5 5 -10 10 -10 6 0 10 5 10 10 0 6 -4 10 -10 10 -5 0
-10 -4 -10 -10z"/>
<path d="M6065 6910 c-7 -12 2 -12 30 0 19 8 19 9 -2 9 -12 1 -25 -3 -28 -9z"/>
<path d="M6158 6913 c7 -3 16 -2 19 1 4 3 -2 6 -13 5 -11 0 -14 -3 -6 -6z"/>
<path d="M6208 6913 c7 -3 16 -2 19 1 4 3 -2 6 -13 5 -11 0 -14 -3 -6 -6z"/>
<path d="M5794 6899 c-3 -6 -17 -8 -30 -5 -12 3 -33 2 -46 -3 -13 -5 -78 -15
-145 -22 -68 -7 -123 -17 -123 -22 0 -5 -7 -6 -16 -3 -8 3 -26 -1 -39 -10 -13
-9 -29 -13 -34 -10 -5 4 -12 2 -16 -4 -9 -15 -42 -12 -48 4 -3 8 -15 12 -29 9
-28 -5 -56 -62 -37 -74 8 -5 8 -13 -1 -28 -10 -19 -7 -27 15 -57 22 -28 32
-34 64 -34 92 0 117 -18 92 -68 -5 -9 -16 -35 -26 -57 -16 -37 -16 -40 1 -52
11 -8 18 -28 20 -52 1 -21 4 -43 8 -49 3 -6 2 -22 -4 -36 -7 -19 -6 -26 2 -26
6 0 24 -15 40 -32 26 -30 28 -30 22 -9 -4 16 -3 21 5 17 6 -4 11 -12 11 -17 0
-20 30 -40 49 -34 11 3 22 1 26 -5 4 -6 20 -8 40 -4 18 3 42 1 52 -5 27 -14
194 -21 218 -9 57 29 115 106 115 153 l0 26 48 -28 c49 -28 64 -42 56 -54 -8
-14 17 -21 31 -9 10 8 19 9 32 1 17 -10 16 -10 -3 -11 -13 0 -24 -8 -27 -19
-3 -11 -21 -23 -50 -32 -26 -7 -44 -15 -42 -17 7 -7 95 21 95 30 0 4 16 8 36
8 19 0 33 4 30 9 -9 15 43 32 64 21 23 -12 33 -13 26 -1 -4 5 24 7 63 5 58 -3
70 0 76 14 3 9 1 18 -4 20 -6 2 -11 14 -11 27 0 12 -7 25 -15 29 -8 3 -15 14
-15 25 0 12 -12 26 -29 35 -16 9 -31 22 -34 31 -4 8 -11 15 -17 15 -15 0 -50
33 -50 48 0 7 -5 10 -10 7 -6 -4 -23 1 -38 11 -15 10 -37 17 -50 15 -12 -1
-25 4 -28 12 -3 8 -13 13 -23 10 -10 -2 -36 5 -57 16 -21 12 -56 24 -77 28
-21 3 -34 9 -28 13 7 4 3 11 -11 17 -73 35 -101 44 -118 38 -11 -4 -20 -2 -20
3 0 6 -7 12 -14 15 -10 4 -13 1 -9 -9 8 -22 -24 -17 -47 9 -20 21 -20 22 -3
26 10 2 24 8 32 14 7 7 19 12 25 13 29 2 76 17 76 24 0 4 19 10 43 14 23 3 69
11 102 17 33 6 68 11 77 12 9 1 15 3 13 6 -3 2 0 10 6 17 12 15 95 9 117 -9 8
-6 12 -6 12 2 0 6 7 11 15 11 8 0 15 -7 15 -16 0 -8 5 -12 10 -9 8 5 7 12 -2
23 -11 13 -10 15 14 10 18 -3 29 0 32 9 4 10 1 13 -12 9 -44 -13 -84 -15 -104
-5 -14 8 -18 8 -14 0 4 -6 0 -11 -9 -11 -8 0 -18 7 -21 15 -5 11 -19 14 -58
11 -28 -2 -75 0 -104 4 -29 3 -55 3 -58 -2 -7 -12 -54 -10 -54 2 0 14 -57 13
-66 -1z m53 -85 c-3 -3 -12 -4 -19 -1 -8 3 -5 6 6 6 11 1 17 -2 13 -5z m-137
-134 c0 -5 -7 -7 -15 -4 -8 4 -15 8 -15 10 0 2 7 4 15 4 8 0 15 -4 15 -10z
m195 -30 c8 -13 -5 -13 -25 0 -13 8 -13 10 2 10 9 0 20 -4 23 -10z m-40 -18
c-3 -3 -11 0 -18 7 -9 10 -8 11 6 5 10 -3 15 -9 12 -12z m172 -120 c56 -21 91
-44 166 -105 46 -38 58 -57 36 -57 -5 0 -7 5 -4 10 4 6 -10 10 -36 10 l-42 0
19 21 c19 21 19 21 -1 19 -11 -1 -36 -2 -55 -1 -28 1 -32 4 -20 12 12 9 11 10
-4 5 -27 -9 -120 15 -104 27 9 5 3 7 -14 4 -16 -2 -28 0 -28 4 0 5 -6 9 -14 9
-8 0 -16 6 -19 13 -3 9 -8 9 -21 -2 -21 -17 -33 -7 -16 14 7 8 8 15 2 15 -5 0
-15 -7 -23 -16 -12 -14 -14 -14 -25 1 -7 9 -17 14 -23 11 -15 -10 -25 15 -10
26 22 15 178 2 236 -20z m-133 -98 c9 -3 16 -10 16 -16 0 -5 -4 -6 -10 -3 -5
3 -10 -2 -10 -12 -1 -17 -2 -17 -15 1 -25 33 -17 44 19 30z"/>
<path d="M6018 6453 c7 -3 16 -2 19 1 4 3 -2 6 -13 5 -11 0 -14 -3 -6 -6z"/>
<path d="M6320 6875 c0 -3 12 -11 28 -19 20 -11 22 -15 9 -16 -24 0 -11 -20
13 -20 36 0 30 27 -11 43 -21 8 -39 14 -39 12z"/>
<path d="M6310 6853 c5 -2 8 -9 5 -13 -3 -5 -1 -11 4 -14 5 -4 8 2 7 11 -2 9
-8 18 -15 19 -6 1 -7 0 -1 -3z"/>
<path d="M6098 6843 c7 -3 16 -2 19 1 4 3 -2 6 -13 5 -11 0 -14 -3 -6 -6z"/>
<path d="M6580 6461 c0 -11 5 -23 11 -26 6 -4 8 -13 5 -21 -3 -9 1 -14 13 -14
26 0 31 19 12 52 -18 32 -41 37 -41 9z"/>
<path d="M6410 6360 c0 -5 9 -10 20 -10 11 0 20 5 20 10 0 6 -9 10 -20 10 -11
0 -20 -4 -20 -10z"/>
<path d="M5536 6194 c-3 -9 -11 -12 -18 -8 -7 4 -5 -1 4 -12 14 -16 15 -23 6
-32 -7 -7 -8 -12 -2 -13 40 -3 77 -12 84 -19 5 -5 66 -34 118 -57 31 -13 33
-13 28 4 -5 15 1 18 34 21 22 1 40 -1 40 -5 0 -5 17 -9 37 -10 22 -1 32 1 24
6 -7 5 -11 12 -9 17 1 5 -12 10 -30 12 -24 3 -35 10 -43 28 -13 37 -11 39 11
13 10 -13 19 -19 20 -12 0 28 -30 41 -95 40 -52 0 -72 4 -95 21 -33 25 -56 28
-63 10 -4 -10 -7 -10 -18 0 -17 16 -26 15 -33 -4z m204 -44 c0 -5 -2 -10 -4
-10 -3 0 -8 5 -11 10 -3 6 -1 10 4 10 6 0 11 -4 11 -10z"/>
<path d="M5906 6175 c-18 -14 -18 -15 9 -25 15 -6 30 -8 33 -5 4 3 -4 8 -16
12 -18 4 -20 8 -11 19 15 18 9 17 -15 -1z"/>
<path d="M5850 6140 c0 -12 40 -34 47 -26 9 8 -17 36 -33 36 -8 0 -14 -4 -14
-10z"/>
<path d="M5585 6080 c3 -5 8 -10 11 -10 2 0 4 5 4 10 0 6 -5 10 -11 10 -5 0
-7 -4 -4 -10z"/>
<path d="M5690 6040 c0 -5 5 -10 11 -10 5 0 7 5 4 10 -3 6 -8 10 -11 10 -2 0
-4 -4 -4 -10z"/>
<path d="M5720 6030 c0 -5 5 -10 11 -10 5 0 7 5 4 10 -3 6 -8 10 -11 10 -2 0
-4 -4 -4 -10z"/>
<path d="M5213 5422 c-23 -9 -53 -26 -67 -37 -28 -23 -43 -61 -24 -62 7 -1 33
-2 58 -4 25 -1 57 -8 73 -16 15 -7 27 -11 27 -8 0 4 10 -1 21 -9 21 -14 28
-14 82 6 55 21 15 99 -70 134 -40 17 -48 17 -100 -4z"/>
<path d="M5031 5219 c-21 -17 -22 -21 -9 -37 21 -24 48 -82 48 -103 0 -10 5
-21 10 -24 7 -4 6 -13 -1 -26 -6 -12 -8 -23 -5 -27 10 -9 57 21 52 34 -2 6 1
17 7 23 9 9 9 14 -1 19 -6 5 -13 21 -15 38 -4 33 -33 98 -50 113 -8 6 -20 3
-36 -10z m79 -139 c0 -5 -4 -10 -10 -10 -5 0 -10 5 -10 10 0 6 5 10 10 10 6 0
10 -4 10 -10z"/>
<path d="M5096 4705 c-3 -9 1 -26 9 -38 15 -21 15 -21 9 13 -8 43 -10 45 -18
25z"/>
<path d="M6128 4073 c7 -3 16 -2 19 1 4 3 -2 6 -13 5 -11 0 -14 -3 -6 -6z"/>
<path d="M6072 4055 c-17 -6 -37 -16 -44 -23 -7 -7 -19 -12 -27 -12 -8 0 -29
-11 -47 -25 -18 -14 -37 -25 -42 -25 -5 0 -17 -9 -27 -20 -10 -11 -24 -20 -30
-20 -14 0 -68 -40 -62 -46 2 -3 27 7 55 21 27 14 55 25 61 25 6 0 11 5 11 10
0 6 4 10 9 10 13 0 169 89 177 101 9 15 2 16 -34 4z"/>
<path d="M4960 3370 c0 -5 5 -10 11 -10 5 0 7 5 4 10 -3 6 -8 10 -11 10 -2 0
-4 -4 -4 -10z"/>
<path d="M4765 3190 c3 -5 11 -10 16 -10 6 0 7 5 4 10 -3 6 -11 10 -16 10 -6
0 -7 -4 -4 -10z"/>
<path d="M4808 3183 c7 -3 16 -2 19 1 4 3 -2 6 -13 5 -11 0 -14 -3 -6 -6z"/>
<path d="M6111 2764 c0 -11 3 -14 6 -6 3 7 2 16 -1 19 -3 4 -6 -2 -5 -13z"/>
<path d="M5140 2720 c8 -5 20 -10 25 -10 6 0 3 5 -5 10 -8 5 -19 10 -25 10 -5
0 -3 -5 5 -10z"/>
<path d="M5920 2709 c0 -5 5 -7 10 -4 6 3 10 8 10 11 0 2 -4 4 -10 4 -5 0 -10
-5 -10 -11z"/>
<path d="M6765 8020 c-3 -5 -1 -10 4 -10 6 0 11 5 11 10 0 6 -2 10 -4 10 -3 0
-8 -4 -11 -10z"/>
<path d="M6870 7745 c1 -17 29 -49 37 -41 4 3 -3 16 -15 29 -12 12 -22 17 -22
12z"/>
<path d="M7075 7990 c10 -11 20 -20 22 -20 2 0 -2 9 -9 20 -7 11 -17 20 -22
20 -5 0 -1 -9 9 -20z"/>
<path d="M6700 8022 c0 -5 7 -15 15 -22 8 -7 15 -8 15 -2 0 5 -7 15 -15 22 -8
7 -15 8 -15 2z"/>
<path d="M7160 7951 c0 -5 5 -13 10 -16 6 -3 10 -2 10 4 0 5 -4 13 -10 16 -5
3 -10 2 -10 -4z"/>
<path d="M6990 7853 c0 -5 9 -21 20 -38 24 -36 26 -26 5 15 -15 29 -25 38 -25
23z"/>
<path d="M6940 7645 c0 -18 19 -40 26 -32 4 4 0 15 -9 24 -9 10 -17 13 -17 8z"/>
<path d="M7006 7601 c-4 -5 -2 -12 3 -15 5 -4 12 -2 15 3 4 5 2 12 -3 15 -5 4
-12 2 -15 -3z"/>
<path d="M7180 6891 c0 -5 5 -13 10 -16 6 -3 10 -2 10 4 0 5 -4 13 -10 16 -5
3 -10 2 -10 -4z"/>
<path d="M3738 5763 c7 -3 16 -2 19 1 4 3 -2 6 -13 5 -11 0 -14 -3 -6 -6z"/>
<path d="M8363 3770 c0 -36 2 -50 4 -32 2 17 2 47 0 65 -2 17 -4 3 -4 -33z"/>
<path d="M8381 3774 c0 -11 3 -14 6 -6 3 7 2 16 -1 19 -3 4 -6 -2 -5 -13z"/>
<path d="M8312 3565 c-6 -14 -7 -25 -2 -25 9 0 25 39 18 46 -3 2 -10 -7 -16
-21z"/>
<path d="M8621 3374 c0 -11 3 -14 6 -6 3 7 2 16 -1 19 -3 4 -6 -2 -5 -13z"/>
<path d="M7014 3072 c2 -4 19 -8 38 -9 30 -1 31 -1 8 7 -33 11 -52 12 -46 2z"/>
</g>
</svg>
